# xmcd
#
# Track frame offsets:
#	150
#	13241
#	25307
#	42488
#	55718
#	70246
#	79176
#	91037
#	117926
#	131232
#	148785
#	158980
#	175753
#	193136
#	207926
#	218294
#	231755
#	247955
#	256714
#	271167
#	286451
#
# Disc length: 4024 seconds
#
# Revision: 0
# Processed by: cddbd v1.5.2PL0 Copyright (c) Steve Scherf et al.
# Submitted via: audiograbber 1.83.01
#
DISCID=2a0fb615
DTITLE=Hermann Lammers Meyer - Stories We Could Tell Vol. 2 (hat noch keiner ei
DTITLE=ngetragen)
DYEAR=2009
DGENRE=Country
TTITLE0=Yesterday Once More (with Zille and Marion Möhring)
TTITLE1=Banjos Goin Home (with Sonny Osborne)
TTITLE2=When Angel Falls
TTITLE3=Hard To Handle, Easy To Love (with Lynn Beckman)
TTITLE4=The Best Part Of Nothing (with David Frizzell)
TTITLE5=No. 1 Attraction
TTITLE6=Barstool Paradise (with Annie B)
TTITLE7=Faith In Santa (with "Pretty Miss" Norma Jean)
TTITLE8=No Ways For A Cheater (with The Emsland Hillbillies)
TTITLE9=Death Of A Clown (alternate version)
TTITLE10=Y' All Come (with Michal Ballew)
TTITLE11=Bear Creek Lounge
TTITLE12=What's Wrong With The Way We're Doin' It Now (with Johnny Bush)
TTITLE13=Country Music Lover
TTITLE14=Could I Have This Dance (Instrumental with The Emsland Hillbillies)
TTITLE15=The Bottle Let Me Down (with Marion Möhring)
TTITLE16=15 Years Ago (with Dusty Owens)
TTITLE17=Nashville Cats Boogie (with Becky Hobbs)
TTITLE18=The Old Bear
TTITLE19=Gone A Million Miles (with Maryann Price)
TTITLE20=Handle With Care
EXTD=
EXTT0=
EXTT1=
EXTT2=
EXTT3=
EXTT4=
EXTT5=
EXTT6=
EXTT7=
EXTT8=
EXTT9=
EXTT10=
EXTT11=
EXTT12=
EXTT13=
EXTT14=
EXTT15=
EXTT16=
EXTT17=
EXTT18=
EXTT19=
EXTT20=
PLAYORDER=
